<?xml version="1.0" encoding="UTF-8" standalone="no"?>
<!DOCTYPE svg PUBLIC "-//W3C//DTD SVG 1.1//EN" "http://www.w3.org/Graphics/SVG/1.1/DTD/svg11.dtd">
<svg width="100%" height="100%" viewBox="0 0 148 148" version="1.1" xmlns="http://www.w3.org/2000/svg" xmlns:xlink="http://www.w3.org/1999/xlink" xml:space="preserve" xmlns:serif="http://www.serif.com/" style="fill-rule:evenodd;clip-rule:evenodd;stroke-linejoin:round;stroke-miterlimit:2;">
    <g transform="matrix(1,0,0,1,-263.125,-223.857)">
        <g id="Sharp-Rounded" serif:id="Sharp Rounded">
            <g transform="matrix(0.904235,-0.512731,0.524777,0.925479,-1.45215,140.664)">
                <path d="M163.774,257.944C163.774,255.837 162.917,253.817 161.392,252.327C159.867,250.837 157.799,250 155.643,250C155.642,250 155.641,250 155.64,250C153.484,250 151.416,250.837 149.891,252.327C148.366,253.817 147.51,255.837 147.51,257.944C147.51,276.326 147.51,320.229 147.51,320.229L163.774,320.229L163.774,257.944Z" style="fill:white;"/>
            </g>
            <g transform="matrix(-0.851498,-0.596225,1.37131,-1.95844,96.6049,948.651)">
                <path d="M163.774,250L163.773,250C159.46,250 155.323,250.745 152.273,252.071C149.223,253.397 147.51,255.196 147.51,257.071C147.51,271.879 147.51,305.686 147.51,316.694C147.51,317.631 148.366,318.53 149.891,319.193C151.416,319.856 153.484,320.229 155.64,320.229C155.641,320.229 155.642,320.229 155.643,320.229C157.799,320.229 159.867,319.856 161.392,319.193C162.917,318.53 163.774,317.631 163.774,316.694C163.774,302.446 163.774,250 163.774,250Z" style="fill:white;"/>
            </g>
        </g>
    </g>
</svg>
